<svg xmlns="http://www.w3.org/2000/svg"
    xmlns:xlink="http://www.w3.org/1999/xlink" version="1.1" width="128" height="128" viewBox="0 0 128 128" xml:space="preserve">
    <g transform="matrix(1 0 0 1 64 64)" id="1c95c893-2d67-4723-b8c1-e4aac5d8c46a">
        <rect style="stroke: none; stroke-width: 1; stroke-dasharray: none; stroke-linecap: butt; stroke-dashoffset: 0; stroke-linejoin: miter; stroke-miterlimit: 4; fill: rgb(255,255,255); fill-rule: nonzero; opacity: 1; visibility: hidden;" vector-effect="non-scaling-stroke" x="-64" y="-64" rx="0" ry="0" width="128" height="128" />
    </g>
    <g transform="matrix(0 0 0 0 0 0)" id="b9e6c405-8bcb-4592-b1e3-d779d1f94bf6">
    </g>
    <g transform="matrix(0.83 0 0 0.83 64 64)">
        <rect style="stroke: none; stroke-width: 1; stroke-dasharray: none; stroke-linecap: butt; stroke-dashoffset: 0; stroke-linejoin: miter; stroke-miterlimit: 4; fill: rgb(1,22,39); fill-rule: nonzero; opacity: 1;" vector-effect="non-scaling-stroke" x="-77.25" y="-77.25" rx="20" ry="20" width="154.5" height="154.5" />
    </g>
    <g transform="matrix(1.28 0 0 1.28 64.1 64.08)">
        <path style="stroke: none; stroke-width: 1; stroke-dasharray: none; stroke-linecap: butt; stroke-dashoffset: 0; stroke-linejoin: miter; stroke-miterlimit: 4; fill: rgb(214,222,235); fill-rule: nonzero; opacity: 1;" vector-effect="non-scaling-stroke" transform=" translate(-15.22, 19.19)" d="M 11.01 -10.21 L 11.01 -1.29 Q 11.01 -0.56 10.71 -0.28 Q 10.4 0 9.67 0 L 9.67 0 L 4.64 0 Q 3.91 0 3.6 -0.28 Q 3.3 -0.56 3.3 -1.29 L 3.3 -1.29 L 3.3 -34.33 Q 3.3 -34.91 3.54 -35.23 L 3.54 -35.23 Q 4.57 -36.57 6.54 -38.13 L 6.54 -38.13 Q 6.88 -38.38 7.15 -38.38 L 7.15 -38.38 Q 7.47 -38.38 7.76 -38.13 L 7.76 -38.13 Q 8.81 -37.33 9.53 -36.62 Q 10.25 -35.91 10.77 -35.23 L 10.77 -35.23 Q 11.01 -34.91 11.01 -34.33 L 11.01 -34.33 L 11.01 -15.16 L 11.3 -15.16 Q 15.01 -15.16 16.35 -16.49 Q 17.68 -17.82 17.68 -20.19 L 17.68 -20.19 L 17.68 -21.51 Q 17.68 -22.09 17.92 -22.41 L 17.92 -22.41 Q 18.95 -23.75 20.92 -25.32 L 20.92 -25.32 Q 21.26 -25.56 21.53 -25.56 L 21.53 -25.56 Q 21.85 -25.56 22.14 -25.32 L 22.14 -25.32 Q 23.19 -24.51 23.91 -23.8 Q 24.63 -23.1 25.15 -22.41 L 25.15 -22.41 Q 25.39 -22.09 25.39 -21.51 L 25.39 -21.51 L 25.39 -20.19 Q 25.39 -18.8 24.84 -17.11 Q 24.29 -15.43 22.85 -14.14 Q 21.41 -12.84 18.75 -12.62 L 18.75 -12.62 L 18.75 -12.5 Q 20.8 -11.6 22.29 -10.11 Q 23.78 -8.62 24.78 -6.92 Q 25.78 -5.22 26.33 -3.67 Q 26.88 -2.12 27.05 -1.05 L 27.05 -1.05 Q 27.22 0 26.34 0 L 26.34 0 L 19.92 0 Q 19.09 0 18.97 -1 L 18.97 -1 Q 18.8 -2.15 18.23 -3.7 Q 17.65 -5.25 16.69 -6.74 Q 15.72 -8.23 14.37 -9.22 Q 13.01 -10.21 11.3 -10.21 L 11.3 -10.21 L 11.01 -10.21 Z" stroke-linecap="round" />
    </g>
    <g transform="matrix(0.83 0 0 0.83 64 64)">
        <path style="stroke: rgb(255,255,255); stroke-opacity: 0; stroke-width: 1; stroke-dasharray: none; stroke-linecap: butt; stroke-dashoffset: 0; stroke-linejoin: miter; stroke-miterlimit: 4; fill: rgb(214,222,235); fill-rule: nonzero; opacity: 1;" vector-effect="non-scaling-stroke" transform=" translate(-77.25, -77.25)" d="M 58.967 41.746 L 58.967 1 L 95.533 1 L 95.533 41.746 L 90.212 41.746 L 90.212 6.321 L 64.288 6.321 L 64.288 41.746 L 58.967 41.746 M 58.967 112.754 L 58.967 153.5 L 95.533 153.5 L 95.533 112.754 L 90.212 112.754 L 90.212 148.179 L 64.288 148.179 L 64.288 112.754 L 58.967 112.754" stroke-linecap="round" />
    </g>
</svg>
