<svg xmlns="http://www.w3.org/2000/svg" version="1.1" xmlns:xlink="http://www.w3.org/1999/xlink" xmlns:svgjs="http://svgjs.dev/svgjs" width="120" height="75" viewBox="0 0 2000 1252"><g transform="matrix(1,0,0,1,-1.2121212121212466,-2.01935483870966)"><svg viewBox="0 0 396 248" preserveAspectRatio="xMidYMid meet" height="1252" width="2000" xmlns="http://www.w3.org/2000/svg" xmlns:xlink="http://www.w3.org/1999/xlink"><g id="tight-bounds" transform="matrix(1,0,0,1,0.2400000000000091,0.4000000000000057)"><svg viewBox="0 0 395.52 247.2" height="247.2" width="395.52"><g><svg></svg></g><g><svg viewBox="0 0 395.52 247.2" height="247.2" width="395.52"><g transform="matrix(1,0,0,1,75.54432,99.81266675767918)"><svg viewBox="0 0 244.43135999999998 47.57466648464163" height="47.57466648464163" width="244.43135999999998"><g><svg viewBox="0 0 244.43135999999998 47.57466648464163" height="47.57466648464163" width="244.43135999999998"><g><svg viewBox="0 0 244.43135999999998 47.57466648464163" height="47.57466648464163" width="244.43135999999998"><g id="textblocktransform"><svg viewBox="0 0 244.43135999999998 47.57466648464163" height="47.57466648464163" width="244.43135999999998" id="textblock"><g><svg viewBox="0 0 244.43135999999998 47.57466648464163" height="47.57466648464163" width="244.43135999999998"><g transform="matrix(1,0,0,1,0,0)"><svg width="244.43135999999998" viewBox="3.3 -38.38 257.49 50.120000000000005" height="47.57466648464163"><path d="M11.01-10.21L11.01-1.29Q11.01-0.56 10.71-0.28 10.4 0 9.67 0L9.67 0 4.64 0Q3.91 0 3.6-0.28 3.3-0.56 3.3-1.29L3.3-1.29 3.3-34.33Q3.3-34.91 3.54-35.23L3.54-35.23Q4.57-36.57 6.54-38.13L6.54-38.13Q6.88-38.38 7.15-38.38L7.15-38.38Q7.47-38.38 7.76-38.13L7.76-38.13Q8.81-37.33 9.53-36.62 10.25-35.91 10.77-35.23L10.77-35.23Q11.01-34.91 11.01-34.33L11.01-34.33 11.01-15.16 11.3-15.16Q15.01-15.16 16.35-16.49 17.68-17.82 17.68-20.19L17.68-20.19 17.68-21.51Q17.68-22.09 17.92-22.41L17.92-22.41Q18.95-23.75 20.92-25.32L20.92-25.32Q21.26-25.56 21.53-25.56L21.53-25.56Q21.85-25.56 22.14-25.32L22.14-25.32Q23.19-24.51 23.91-23.8 24.63-23.1 25.15-22.41L25.15-22.41Q25.39-22.09 25.39-21.51L25.39-21.51 25.39-20.19Q25.39-18.8 24.84-17.11 24.29-15.43 22.85-14.14 21.41-12.84 18.75-12.62L18.75-12.62 18.75-12.5Q20.8-11.6 22.29-10.11 23.78-8.62 24.78-6.92 25.78-5.22 26.33-3.67 26.88-2.12 27.05-1.05L27.05-1.05Q27.22 0 26.34 0L26.34 0 19.92 0Q19.09 0 18.97-1L18.97-1Q18.8-2.15 18.23-3.7 17.65-5.25 16.69-6.74 15.72-8.23 14.37-9.22 13.01-10.21 11.3-10.21L11.3-10.21 11.01-10.21ZM32.37 11.74L32.37 11.74Q31.47 11.74 31 11.56 30.54 11.38 30.22 11.11L30.22 11.11Q29.59 10.5 28.85 9.4L28.85 9.4Q28.68 9.13 28.49 8.78 28.29 8.42 28.29 8.18L28.29 8.18Q28.29 7.91 28.42 7.69 28.54 7.47 28.71 7.28L28.71 7.28Q29.1 6.76 29.66 6.21 30.22 5.66 30.61 5.35L30.61 5.35Q30.88 5.13 31.05 5.07 31.22 5 31.35 5L31.35 5Q31.47 5 31.71 5.05 31.96 5.1 32.44 5.1L32.44 5.1Q34.13 5.1 35.96 4 37.79 2.91 39.57-0.12L39.57-0.12Q37.72-1.83 35.92-4.41 34.13-6.98 32.69-10 31.25-13.01 30.38-16.02 29.51-19.02 29.51-21.56L29.51-21.56Q29.51-22.09 29.78-22.41L29.78-22.41Q30.91-23.8 32.98-25.32L32.98-25.32Q33.35-25.56 33.64-25.56L33.64-25.56Q33.96-25.56 34.3-25.32L34.3-25.32Q35.42-24.51 36.19-23.8 36.96-23.1 37.5-22.41L37.5-22.41Q37.77-22.09 37.77-21.51L37.77-21.51 37.77-21.61Q37.77-19.68 38.23-17.53 38.69-15.38 39.5-13.34 40.31-11.3 41.31-9.66 42.31-8.01 43.38-7.03L43.38-7.03 43.5-7.03Q43.99-7.96 44.59-9.7 45.19-11.45 45.73-13.59 46.26-15.72 46.6-17.83 46.95-19.95 46.95-21.58L46.95-21.58 46.95-21.51Q46.95-22.09 47.19-22.41L47.19-22.41Q47.75-23.1 48.51-23.8 49.27-24.51 50.34-25.32L50.34-25.32Q50.68-25.56 50.97-25.56L50.97-25.56Q51.32-25.56 51.61-25.32L51.61-25.32Q52.71-24.51 53.46-23.8 54.22-23.1 54.76-22.41L54.76-22.41Q55-22.09 55-21.53L55-21.53Q54.98-19.31 54.15-15.73 53.32-12.16 51.73-7.98 50.14-3.81 47.87 0.2L47.87 0.2Q44.48 6.23 40.55 8.98 36.62 11.74 32.37 11.74ZM55-21.58L55-21.58 55-21.51 55-21.53Q55-21.56 55-21.58ZM29.51-21.51L29.51-21.58 29.51-21.56 29.51-21.51ZM65.94 0.61L65.94 0.61Q62.35 0.61 60.24-1.4 58.12-3.42 58.12-6.96L58.12-6.96Q58.12-8.79 58.8-10.36 59.47-11.94 61.14-13.15 62.81-14.36 65.83-15.09 68.84-15.82 73.53-15.94L73.53-15.94Q73.53-18.16 72.42-19.14 71.31-20.12 69.09-20.12L69.09-20.12Q67.08-20.12 65.82-19.43 64.55-18.75 64.23-18.51L64.23-18.51Q63.89-18.21 63.4-18.29L63.4-18.29Q62.74-18.38 61.99-18.63 61.25-18.87 60.4-19.19L60.4-19.19Q60.27-19.24 60.13-19.35 59.98-19.46 59.96-19.68L59.96-19.68Q59.96-19.8 59.98-19.98 60-20.17 60.1-20.65L60.1-20.65Q60.2-21.14 60.4-21.86 60.59-22.58 60.76-22.97L60.76-22.97Q60.98-23.39 61.49-23.75L61.49-23.75Q61.91-24.1 64.01-24.85 66.11-25.61 70.09-25.61L70.09-25.61Q81.05-25.61 81.05-14.94L81.05-14.94 81.05-1.12Q81.05-0.66 80.79-0.33 80.54 0 79.93 0L79.93 0 76.26 0Q75.87 0 75.57-0.11 75.26-0.22 75-0.54L75-0.54 73.48-2.49 73.31-2.49Q72.19-0.85 70.3-0.12 68.4 0.61 65.94 0.61ZM68.62-5.05L68.62-5.05Q70.87-5.05 72.02-6.2 73.16-7.35 73.48-8.57L73.48-8.57 73.48-11.28Q70.09-11.28 68.39-10.75 66.69-10.23 66.13-9.39 65.57-8.54 65.57-7.57L65.57-7.57Q65.57-6.15 66.45-5.6 67.33-5.05 68.62-5.05ZM111.81-15.55L111.81-15.55 111.81-1.29Q111.81-0.56 111.5-0.28 111.2 0 110.47 0L110.47 0 105.44 0Q104.7 0 104.4-0.28 104.09-0.56 104.09-1.29L104.09-1.29 104.09-14.28Q104.09-16.94 102.97-18.16 101.85-19.38 99.92-19.38L99.92-19.38Q97.99-19.38 96.95-18.55 95.92-17.72 95.35-16.46L95.35-16.46 95.35-1.29Q95.35-0.56 95.05-0.28 94.74 0 94.01 0L94.01 0 88.98 0Q88.25 0 87.94-0.28 87.64-0.56 87.64-1.29L87.64-1.29 87.64-21.75Q87.64-22.34 87.88-22.66L87.88-22.66Q88.4-23.34 89.12-24.05 89.84-24.76 90.89-25.56L90.89-25.56Q91.2-25.81 91.5-25.81L91.5-25.81Q91.76-25.81 92.11-25.56L92.11-25.56Q93.13-24.76 93.86-24.02 94.6-23.29 95.16-22.51L95.16-22.51 95.28-22.51Q95.7-23.05 96.53-23.77 97.36-24.49 98.86-25.05 100.36-25.61 102.7-25.61L102.7-25.61Q105-25.61 107.07-24.68 109.15-23.75 110.48-21.56 111.81-19.36 111.81-15.55ZM124.87 0.61L124.87 0.61Q121.28 0.61 119.17-1.4 117.06-3.42 117.06-6.96L117.06-6.96Q117.06-8.79 117.73-10.36 118.4-11.94 120.07-13.15 121.74-14.36 124.76-15.09 127.77-15.82 132.46-15.94L132.46-15.94Q132.46-18.16 131.35-19.14 130.24-20.12 128.02-20.12L128.02-20.12Q126.02-20.12 124.75-19.43 123.48-18.75 123.16-18.51L123.16-18.51Q122.82-18.21 122.33-18.29L122.33-18.29Q121.67-18.38 120.93-18.63 120.18-18.87 119.33-19.19L119.33-19.19Q119.2-19.24 119.06-19.35 118.91-19.46 118.89-19.68L118.89-19.68Q118.89-19.8 118.91-19.98 118.94-20.17 119.03-20.65L119.03-20.65Q119.13-21.14 119.33-21.86 119.52-22.58 119.69-22.97L119.69-22.97Q119.91-23.39 120.42-23.75L120.42-23.75Q120.84-24.1 122.94-24.85 125.04-25.61 129.02-25.61L129.02-25.61Q139.98-25.61 139.98-14.94L139.98-14.94 139.98-1.12Q139.98-0.66 139.72-0.33 139.47 0 138.86 0L138.86 0 135.2 0Q134.8 0 134.5-0.11 134.19-0.22 133.93-0.54L133.93-0.54 132.41-2.49 132.24-2.49Q131.12-0.85 129.23-0.12 127.33 0.61 124.87 0.61ZM127.55-5.05L127.55-5.05Q129.8-5.05 130.95-6.2 132.09-7.35 132.41-8.57L132.41-8.57 132.41-11.28Q129.02-11.28 127.32-10.75 125.62-10.23 125.06-9.39 124.5-8.54 124.5-7.57L124.5-7.57Q124.5-6.15 125.38-5.6 126.26-5.05 127.55-5.05ZM144.86-4.42L144.86-4.42Q144.86-4.76 145.08-5.02 145.3-5.27 145.64-5.71L145.64-5.71Q146.4-6.57 147.39-7.51 148.38-8.45 149.38-9.33L149.38-9.33Q150.01-9.84 150.33-9.84L150.33-9.84Q150.62-9.84 151.31-9.33L151.31-9.33Q153.43-7.52 154.99-5.71L154.99-5.71Q155.33-5.3 155.55-5.03 155.77-4.76 155.77-4.42L155.77-4.42Q155.77-4.08 155.54-3.81 155.31-3.54 154.97-3.08L154.97-3.08Q154.24-2.25 153.27-1.32 152.31-0.39 151.31 0.49L151.31 0.49Q150.67 1 150.33 1L150.33 1Q150.04 1 149.33 0.49L149.33 0.49Q148.25-0.39 147.33-1.33 146.4-2.27 145.64-3.15L145.64-3.15Q145.3-3.56 145.08-3.82 144.86-4.08 144.86-4.42ZM172.13 0.61L172.13 0.61Q168.98 0.61 166.83 0.15 164.68-0.32 163.22-1 161.75-1.68 160.65-2.37L160.65-2.37 160.65-34.33Q160.65-34.91 160.9-35.23L160.9-35.23Q161.92-36.57 163.9-38.13L163.9-38.13Q164.24-38.38 164.51-38.38L164.51-38.38Q164.83-38.38 165.12-38.13L165.12-38.13Q166.17-37.33 166.89-36.62 167.61-35.91 168.12-35.23L168.12-35.23Q168.37-34.91 168.37-34.33L168.37-34.33 168.37-22.49 168.47-22.49Q169.44-23.73 171.18-24.67 172.91-25.61 176.01-25.61L176.01-25.61Q179.48-25.61 181.72-24.01 183.97-22.41 185.07-19.62 186.17-16.82 186.17-13.21L186.17-13.21Q186.17-9.3 184.87-6.16 183.58-3.03 180.51-1.21 177.45 0.61 172.13 0.61ZM172.45-5.3L172.45-5.3Q175.28-5.3 176.77-7.19 178.26-9.08 178.26-12.6L178.26-12.6Q178.26-16.16 176.93-17.77 175.6-19.38 173.08-19.38L173.08-19.38Q171.05-19.38 169.99-18.55 168.93-17.72 168.37-16.46L168.37-16.46 168.37-6.37Q168.91-5.98 169.89-5.64 170.88-5.3 172.45-5.3ZM199.71-1.83L194.61 0.51Q194.1 0.73 193.88 0.73L193.88 0.73Q193.66 0.73 193.42 0.56L193.42 0.56Q192.85 0.17 192.13-1.35 191.41-2.88 191.41-6.05L191.41-6.05 191.41-34.33Q191.41-34.91 191.66-35.23L191.66-35.23Q192.68-36.57 194.66-38.13L194.66-38.13Q195-38.38 195.27-38.38L195.27-38.38Q195.59-38.38 195.88-38.13L195.88-38.13Q196.93-37.33 197.65-36.62 198.37-35.91 198.88-35.23L198.88-35.23Q199.13-34.91 199.13-34.33L199.13-34.33 199.13-7.54Q199.13-5.93 199.4-4.8 199.67-3.66 200.03-2.98L200.03-2.98Q200.45-2.17 199.71-1.83L199.71-1.83ZM217.8 0.61L217.8 0.61Q211.65 0.61 208.06-2.66 204.47-5.93 204.47-12.4L204.47-12.4Q204.47-19.04 208.2-22.33 211.92-25.61 218.14-25.61L218.14-25.61Q224.15-25.61 227.76-22.38 231.38-19.14 231.38-12.84L231.38-12.84Q231.38-6.27 227.76-2.83 224.15 0.61 217.8 0.61ZM218.05-5.3L218.05-5.3Q220.73-5.3 222.1-6.97 223.47-8.64 223.47-12.7L223.47-12.7Q223.47-16.55 222.09-18.13 220.71-19.7 218-19.7L218-19.7Q215.39-19.7 213.88-18.01 212.38-16.31 212.38-12.5L212.38-12.5Q212.38-8.52 213.81-6.91 215.24-5.3 218.05-5.3ZM260.79-22.66L260.79-22.66 260.79-2.86Q260.79 4.27 256.73 8.01 252.66 11.74 245.58 11.74L245.58 11.74Q242.65 11.74 240.94 11.32 239.24 10.89 238.36 10.5L238.36 10.5Q237.79 10.23 237.62 9.94L237.62 9.94Q237.38 9.55 237.07 8.79 236.77 8.03 236.5 7.13L236.5 7.13Q236.43 6.79 236.48 6.62L236.48 6.62Q236.57 6.37 236.84 6.1L236.84 6.1Q237.28 5.66 238.1 5.08 238.92 4.49 239.36 4.32L239.36 4.32Q239.82 4.15 240.21 4.37L240.21 4.37Q240.85 4.71 242.03 5.14 243.21 5.57 245.36 5.57L245.36 5.57Q248.78 5.57 250.93 3.81 253.08 2.05 253.08-1.61L253.08-1.61 253.08-2.49 252.98-2.49Q252.44-1.81 251.59-1.1 250.73-0.39 249.38 0.1 248.02 0.59 245.9 0.59L245.9 0.59Q242.21 0.59 239.86-1.01 237.5-2.61 236.39-5.42 235.28-8.23 235.28-11.82L235.28-11.82Q235.28-15.75 236.57-18.87 237.87-22 240.92-23.82 243.97-25.63 249.27-25.63L249.27-25.63Q252.44-25.63 254.6-25.17 256.76-24.71 258.23-24.02 259.69-23.34 260.79-22.66ZM249-19.73L249-19.73Q246.17-19.73 244.68-17.82 243.19-15.92 243.19-11.91L243.19-11.91Q243.19-5.64 248.37-5.64L248.37-5.64Q250.39-5.64 251.47-6.47 252.54-7.3 253.08-8.57L253.08-8.57 253.08-18.65Q252.54-19.04 251.56-19.38 250.59-19.73 249-19.73Z" opacity="1" transform="matrix(1,0,0,1,0,0)" fill="currentColor"></path></svg></g></svg></g></svg></g></svg></g></svg></g></svg></g><path d="M189.345 93.813L189.345 32.849 7.843 32.849 7.843 214.351 189.345 214.351 189.345 153.387 185.055 153.387 185.055 210.061 12.133 210.061 12.133 37.139 185.055 37.139 185.055 93.813Z" fill="currentColor" stroke="transparent"></path></svg></g><defs></defs></svg><rect width="395.52" height="247.2" fill="none" stroke="none" visibility="hidden"></rect></g></svg></g></svg>